<mxfile host="65bd71144e">
    <diagram id="RHTDpmTN4QdGOPyxBB4j" name="Page-1">
        <mxGraphModel dx="889" dy="1804" grid="1" gridSize="10" guides="1" tooltips="1" connect="1" arrows="1" fold="1" page="1" pageScale="1" pageWidth="827" pageHeight="1169" math="0" shadow="0">
            <root>
                <mxCell id="0"/>
                <mxCell id="1" parent="0"/>
                <mxCell id="26" style="edgeStyle=none;html=1;exitX=0.25;exitY=1;exitDx=0;exitDy=0;entryX=1;entryY=0;entryDx=0;entryDy=0;" edge="1" parent="1" source="2" target="7">
                    <mxGeometry relative="1" as="geometry"/>
                </mxCell>
                <mxCell id="27" style="edgeStyle=none;html=1;exitX=0.75;exitY=1;exitDx=0;exitDy=0;entryX=0;entryY=0;entryDx=0;entryDy=0;" edge="1" parent="1" source="2" target="3">
                    <mxGeometry relative="1" as="geometry"/>
                </mxCell>
                <mxCell id="41" style="edgeStyle=none;html=1;exitX=0.5;exitY=1;exitDx=0;exitDy=0;" edge="1" parent="1" source="2">
                    <mxGeometry relative="1" as="geometry">
                        <mxPoint x="353.66666666666674" y="-390" as="targetPoint"/>
                    </mxGeometry>
                </mxCell>
                <mxCell id="2" value="App.js&lt;br&gt;App.test.js&lt;br&gt;index.css" style="rounded=1;whiteSpace=wrap;html=1;" parent="1" vertex="1">
                    <mxGeometry x="294" y="-530" width="120" height="60" as="geometry"/>
                </mxCell>
                <mxCell id="3" value="SubjectCards.js&amp;nbsp;&lt;br&gt;index.css&lt;br&gt;subjects.test.js" style="rounded=1;whiteSpace=wrap;html=1;" parent="1" vertex="1">
                    <mxGeometry x="480" y="-390" width="120" height="60" as="geometry"/>
                </mxCell>
                <mxCell id="7" value="Form.js&lt;br&gt;index.css&lt;br&gt;Form.test.js" style="rounded=1;whiteSpace=wrap;html=1;" parent="1" vertex="1">
                    <mxGeometry x="90" y="-400" width="120" height="60" as="geometry"/>
                </mxCell>
                <mxCell id="37" style="edgeStyle=none;html=1;exitX=0.25;exitY=0;exitDx=0;exitDy=0;" edge="1" parent="1" source="13">
                    <mxGeometry relative="1" as="geometry">
                        <mxPoint x="160" y="-480" as="targetPoint"/>
                    </mxGeometry>
                </mxCell>
                <mxCell id="13" value="listOfObjects&lt;br&gt;setListOfObjects" style="text;html=1;strokeColor=none;fillColor=none;align=center;verticalAlign=middle;whiteSpace=wrap;rounded=0;" parent="1" vertex="1">
                    <mxGeometry x="190" y="-460" width="60" height="30" as="geometry"/>
                </mxCell>
                <mxCell id="15" value="&lt;h1&gt;&lt;span style=&quot;background-color: initial; font-size: 12px; font-weight: normal;&quot;&gt;ID&lt;/span&gt;&lt;/h1&gt;&lt;h1&gt;&lt;span style=&quot;background-color: initial; font-size: 12px; font-weight: normal;&quot;&gt;Subject&lt;/span&gt;&lt;/h1&gt;&lt;h1&gt;&lt;span style=&quot;background-color: initial; font-size: 12px; font-weight: normal;&quot;&gt;Question&lt;/span&gt;&lt;br&gt;&lt;/h1&gt;&lt;p&gt;Answer&lt;/p&gt;&lt;p&gt;&lt;br&gt;&lt;/p&gt;" style="text;html=1;strokeColor=#666666;fillColor=#f5f5f5;spacing=5;spacingTop=-20;whiteSpace=wrap;overflow=hidden;rounded=0;fontColor=#333333;" parent="1" vertex="1">
                    <mxGeometry x="60" y="-660" width="100" height="170" as="geometry"/>
                </mxCell>
                <mxCell id="19" value="QuestionCards.js&lt;br&gt;index.css&lt;br&gt;card.test.js" style="rounded=1;whiteSpace=wrap;html=1;" vertex="1" parent="1">
                    <mxGeometry x="294" y="-380" width="120" height="60" as="geometry"/>
                </mxCell>
                <mxCell id="30" value="addQuestion function" style="text;html=1;align=center;verticalAlign=middle;whiteSpace=wrap;rounded=0;" vertex="1" parent="1">
                    <mxGeometry x="110" y="-330" width="60" height="30" as="geometry"/>
                </mxCell>
                <mxCell id="33" value="listOfObjects&lt;br&gt;setListOfObjects" style="text;html=1;strokeColor=none;fillColor=none;align=center;verticalAlign=middle;whiteSpace=wrap;rounded=0;" vertex="1" parent="1">
                    <mxGeometry x="430" y="-480" width="60" height="30" as="geometry"/>
                </mxCell>
                <mxCell id="38" value="submit" style="text;html=1;strokeColor=none;fillColor=none;align=center;verticalAlign=middle;whiteSpace=wrap;rounded=0;" vertex="1" parent="1">
                    <mxGeometry x="110" y="-290" width="60" height="30" as="geometry"/>
                </mxCell>
                <mxCell id="39" value="answer button,&lt;br&gt;ratings, next/prev card" style="text;html=1;strokeColor=none;fillColor=none;align=center;verticalAlign=middle;whiteSpace=wrap;rounded=0;" vertex="1" parent="1">
                    <mxGeometry x="294" y="-300" width="110" height="30" as="geometry"/>
                </mxCell>
                <mxCell id="42" value="buttons, we need to be able to see what user clicked and update a state" style="text;html=1;strokeColor=none;fillColor=none;align=center;verticalAlign=middle;whiteSpace=wrap;rounded=0;" vertex="1" parent="1">
                    <mxGeometry x="460" y="-310" width="160" height="30" as="geometry"/>
                </mxCell>
                <mxCell id="43" value="subject,setSubject" style="text;html=1;strokeColor=none;fillColor=none;align=center;verticalAlign=middle;whiteSpace=wrap;rounded=0;" vertex="1" parent="1">
                    <mxGeometry x="480" y="-430" width="60" height="30" as="geometry"/>
                </mxCell>
            </root>
        </mxGraphModel>
    </diagram>
</mxfile>